<svg xmlns="http://www.w3.org/2000/svg" xmlns:xlink="http://www.w3.org/1999/xlink" width="572pt" height="297pt" viewBox="0.00 0.00 572.09 296.60">
<g id="graph0" class="graph" transform="scale(1 1) rotate(0) translate(4 292.6)">
<title>BlockAnatomy</title>
<polygon fill="white" stroke="none" points="-4,4 -4,-292.6 568.09,-292.6 568.09,4 -4,4"/>
<!-- Block -->
<g id="node1" class="node">
<title>Block</title>
<polygon fill="#e0f7fa" stroke="black" points="267.24,-0.5 267.24,-288.1 564.09,-288.1 564.09,-0.5 267.24,-0.5"/>
<polygon fill="#f1f8e9" stroke="none" points="275.24,-4.5 275.24,-284.1 556.09,-284.1 556.09,-4.5 275.24,-4.5"/>
<polygon fill="none" stroke="black" points="275.24,-261.3 275.24,-284.1 556.09,-284.1 556.09,-261.3 275.24,-261.3"/>
<text text-anchor="start" x="394.66" y="-269.5" font-family="Courier New" font-weight="bold" font-size="14.00">Block</text>
<polygon fill="#c8e6c9" stroke="none" points="275.24,-238.5 275.24,-261.3 556.09,-261.3 556.09,-238.5 275.24,-238.5"/>
<polygon fill="none" stroke="black" points="275.24,-238.5 275.24,-261.3 556.09,-261.3 556.09,-238.5 275.24,-238.5"/>
<text text-anchor="start" x="390.46" y="-246.7" font-family="Courier New" font-weight="bold" font-size="14.00">Header</text>
<polygon fill="none" stroke="black" points="275.24,-215.7 275.24,-238.5 390.46,-238.5 390.46,-215.7 275.24,-215.7"/>
<text text-anchor="start" x="278.24" y="-222.9" font-family="Courier New" font-size="14.00">Previous Hash</text>
<polygon fill="none" stroke="black" points="390.46,-215.7 390.46,-238.5 556.09,-238.5 556.09,-215.7 390.46,-215.7"/>
<text text-anchor="start" x="393.46" y="-222.9" font-family="Courier New" font-size="14.00">0000ab34...ff</text>
<polygon fill="none" stroke="black" points="275.24,-192.9 275.24,-215.7 390.46,-215.7 390.46,-192.9 275.24,-192.9"/>
<text text-anchor="start" x="278.24" y="-200.1" font-family="Courier New" font-size="14.00">Timestamp</text>
<polygon fill="none" stroke="black" points="390.46,-192.9 390.46,-215.7 556.09,-215.7 556.09,-192.9 390.46,-192.9"/>
<text text-anchor="start" x="393.46" y="-200.1" font-family="Courier New" font-size="14.00">2025-06-07 15:23:10</text>
<polygon fill="none" stroke="black" points="275.24,-170.1 275.24,-192.9 390.46,-192.9 390.46,-170.1 275.24,-170.1"/>
<text text-anchor="start" x="278.24" y="-177.3" font-family="Courier New" font-size="14.00">Nonce</text>
<polygon fill="none" stroke="black" points="390.46,-170.1 390.46,-192.9 556.09,-192.9 556.09,-170.1 390.46,-170.1"/>
<text text-anchor="start" x="393.46" y="-177.3" font-family="Courier New" font-size="14.00">312045</text>
<polygon fill="none" stroke="black" points="275.24,-147.3 275.24,-170.1 390.46,-170.1 390.46,-147.3 275.24,-147.3"/>
<text text-anchor="start" x="278.24" y="-154.5" font-family="Courier New" font-size="14.00">Merkle Root</text>
<polygon fill="none" stroke="black" points="390.46,-147.3 390.46,-170.1 556.09,-170.1 556.09,-147.3 390.46,-147.3"/>
<text text-anchor="start" x="393.46" y="-154.5" font-family="Courier New" font-size="14.00">8f5d3a2b...e9</text>
<polygon fill="#bbdefb" stroke="none" points="275.24,-124.5 275.24,-147.3 556.09,-147.3 556.09,-124.5 275.24,-124.5"/>
<polygon fill="none" stroke="black" points="275.24,-124.5 275.24,-147.3 556.09,-147.3 556.09,-124.5 275.24,-124.5"/>
<text text-anchor="start" x="348.45" y="-132.7" font-family="Courier New" font-weight="bold" font-size="14.00">Transaction Data</text>
<polygon fill="none" stroke="black" points="275.24,-4.5 275.24,-124.5 556.09,-124.5 556.09,-4.5 275.24,-4.5"/>
<polygon fill="none" stroke="black" points="278.24,-98.7 278.24,-121.5 553.09,-121.5 553.09,-98.7 278.24,-98.7"/>
<text text-anchor="start" x="403.06" y="-105.9" font-family="Courier New" font-size="14.00">Tx1</text>
<polygon fill="none" stroke="black" points="278.24,-75.9 278.24,-98.7 553.09,-98.7 553.09,-75.9 278.24,-75.9"/>
<text text-anchor="start" x="403.06" y="-83.1" font-family="Courier New" font-size="14.00">Tx2</text>
<polygon fill="none" stroke="black" points="278.24,-53.1 278.24,-75.9 553.09,-75.9 553.09,-53.1 278.24,-53.1"/>
<text text-anchor="start" x="403.06" y="-60.3" font-family="Courier New" font-size="14.00">Tx3</text>
<polygon fill="none" stroke="black" points="278.24,-30.3 278.24,-53.1 553.09,-53.1 553.09,-30.3 278.24,-30.3"/>
<text text-anchor="start" x="403.06" y="-37.5" font-family="Courier New" font-size="14.00">...</text>
<polygon fill="none" stroke="black" points="278.24,-7.5 278.24,-30.3 553.09,-30.3 553.09,-7.5 278.24,-7.5"/>
<text text-anchor="start" x="403.06" y="-14.7" font-family="Courier New" font-size="14.00">TxN</text>
</g>
<!-- PreviousBlock -->
<g id="node2" class="node">
<title>PreviousBlock</title>
<path fill="#ffe0b2" stroke="black" d="M163.63,-165.1C163.63,-165.1 12,-165.1 12,-165.1 6,-165.1 0,-159.1 0,-153.1 0,-153.1 0,-135.5 0,-135.5 0,-129.5 6,-123.5 12,-123.5 12,-123.5 163.63,-123.5 163.63,-123.5 169.63,-123.5 175.63,-129.5 175.63,-135.5 175.63,-135.5 175.63,-153.1 175.63,-153.1 175.63,-159.1 169.63,-165.1 163.63,-165.1"/>
<text text-anchor="middle" x="87.81" y="-148.5" font-family="Courier New" font-size="14.00">Previous Block</text>
<text text-anchor="middle" x="87.81" y="-131.7" font-family="Courier New" font-size="14.00">Hash: 0000ab34...ff</text>
</g>
<!-- PreviousBlock&#45;&gt;Block -->
<g id="edge1" class="edge">
<title>PreviousBlock-&gt;Block</title>
<path fill="none" stroke="black" d="M175.71,-144.3C200.4,-144.3 228.09,-144.3 255.63,-144.3"/>
<polygon fill="black" stroke="black" points="255.49,-147.8 265.49,-144.3 255.49,-140.8 255.49,-147.8"/>
<text text-anchor="middle" x="221.43" y="-148.5" font-family="Times,serif" font-size="14.00"> points to </text>
</g>
</g>
</svg>